<svg width="86" height="19" viewBox="0 0 86 19" fill="none" xmlns="http://www.w3.org/2000/svg">
<path d="M18.1277 4.4602V0.973329H0.0837402V18.0419H18.1277V14.555H4.4728V11.0926H18.1277V7.92268H4.4728V4.4602H18.1277Z" fill="white"/>
<path d="M18.5658 18.0419H24.613L31.1478 12.1898L37.6582 18.0419H43.7298L34.1226 9.50762L43.7298 0.973329H37.6582L31.1478 6.82541L24.613 0.973329H18.5658L28.173 9.50762L18.5658 18.0419Z" fill="white"/>
<path d="M57.4235 0.973329H44.0125V18.0419H48.4015V13.4822H57.4235C61.3005 13.4822 63.9583 11.0438 63.9583 7.23994C63.9583 3.43608 61.3005 0.973329 57.4235 0.973329ZM56.2043 9.80022H48.4015V4.65527H56.2043C57.521 4.65527 59.5693 4.65527 59.5693 7.23994C59.5693 9.80022 57.521 9.80022 56.2043 9.80022Z" fill="white"/>
<path d="M75.2712 18.2857C82.757 18.2857 86 15.1403 86 9.48324C86 3.85061 82.757 0.729492 75.2712 0.729492C67.761 0.729492 64.5424 3.82622 64.5424 9.48324C64.5424 15.1646 67.761 18.2857 75.2712 18.2857ZM75.2712 14.6038C70.7115 14.6038 68.9315 12.9945 68.9315 9.48324C68.9315 5.99637 70.6871 4.41143 75.2712 4.41143C79.8554 4.41143 81.611 6.02075 81.611 9.48324C81.611 12.9701 79.831 14.6038 75.2712 14.6038Z" fill="white"/>
</svg>
