<svg width="328" height="68" viewBox="0 0 328 68" fill="none" xmlns="http://www.w3.org/2000/svg">
<path d="M69.0385 14.6547V1.39549H0.424316V66.3008H69.0385V53.0416H17.1142V39.8751H69.0385V27.8212H17.1142V14.6547H69.0385Z" fill="white"/>
<path d="M70.7046 66.3008H93.6996L118.549 44.0475L143.306 66.3008H166.393L129.861 33.8481L166.393 1.39549H143.306L118.549 23.6487L93.6996 1.39549H70.7046L107.237 33.8481L70.7046 66.3008Z" fill="white"/>
<path d="M218.465 1.39549H167.468V66.3008H184.158V48.9618H218.465C233.208 48.9618 243.315 39.6896 243.315 25.225C243.315 10.7604 233.208 1.39549 218.465 1.39549ZM213.829 34.9608H184.158V15.3965H213.829C218.836 15.3965 226.625 15.3965 226.625 25.225C226.625 34.9608 218.836 34.9608 213.829 34.9608Z" fill="white"/>
<path d="M286.333 67.228C314.799 67.228 327.131 55.2669 327.131 33.7554C327.131 12.3367 314.799 0.468277 286.333 0.468277C257.775 0.468277 245.536 12.244 245.536 33.7554C245.536 55.3596 257.775 67.228 286.333 67.228ZM286.333 53.227C268.995 53.227 262.226 47.1074 262.226 33.7554C262.226 20.4962 268.902 14.4693 286.333 14.4693C303.765 14.4693 310.441 20.5889 310.441 33.7554C310.441 47.0146 303.672 53.227 286.333 53.227Z" fill="white"/>
</svg>
