<svg width="179" height="47" viewBox="0 0 179 47" fill="none" xmlns="http://www.w3.org/2000/svg">
<path d="M38.0441 1.23944H29.4493L19.0859 18.7121L8.72256 1.23944H0.127686V25.9983H6.49426V9.02081L16.7869 25.9983H21.385L31.6776 9.02081V25.9983H38.0441V1.23944Z" fill="white"/>
<path d="M71.1271 13.5835V1.23944H64.7605V13.5835C64.7605 17.0144 63.8055 21.0112 55.5644 21.0112C47.3232 21.0112 46.3682 17.0498 46.3682 13.5835V1.23944H40.0016V13.5835C40.0016 22.2138 44.6705 26.352 55.5644 26.352C66.4229 26.352 71.1271 22.1784 71.1271 13.5835Z" fill="white"/>
<path d="M72.5447 17.4742C72.5447 24.6189 78.5929 26.352 88.744 26.352C97.9048 26.352 104.165 25.008 104.165 18.3938C104.165 12.1334 98.1171 11.6028 88.355 11.0723C81.1395 10.6478 79.654 10.2941 79.654 8.38415C79.654 6.54492 81.1395 5.94363 87.4 5.94363C94.0142 5.94363 96.7376 6.61566 96.7376 9.33913H103.104C103.104 3.22015 97.445 0.885742 88.1074 0.885742C78.8405 0.885742 73.2874 2.61887 73.2874 8.06582C73.2874 13.6189 77.5672 15.3166 88.355 15.8118C96.3839 16.2009 97.7987 16.5546 97.7987 18.606C97.7987 20.5514 95.7826 21.2941 89.0977 21.2941C81.0334 21.2941 78.9112 20.0916 78.9112 17.4742H72.5447Z" fill="white"/>
<path d="M111.954 20.6575V1.23944H105.588V25.9983H131.054V20.6575H111.954Z" fill="white"/>
<path d="M139.014 1.23944H132.647V25.9983H139.014V1.23944Z" fill="white"/>
<path d="M178.867 1.23944H170.272L159.909 18.7121L149.546 1.23944H140.951V25.9983H147.317V9.02081L157.61 25.9983H162.208L172.501 9.02081V25.9983H178.867V1.23944Z" fill="white"/>
<path d="M21.0711 28.932H0V32.6317H8.33044V46.0829H12.7407V32.6317H21.0711V28.932Z" fill="white"/>
<path d="M40.0395 32.4357V28.932H21.9086V46.0829H40.0395V42.5793H26.3188V39.1001H40.0395V35.9149H26.3188V32.4357H40.0395Z" fill="white"/>
<path d="M40.6473 37.483C40.6473 43.1918 43.8815 46.328 51.4279 46.328C58.2637 46.328 61.6939 43.7063 62.1349 38.7325H57.6512C57.2347 41.5257 55.0785 42.6283 51.4279 42.6283C46.9686 42.6283 45.0575 41.0112 45.0575 37.483C45.0575 33.9793 46.9441 32.3867 51.4279 32.3867C55.1031 32.3867 57.2347 33.4648 57.6512 36.2334H62.1349C61.6939 31.2841 58.2637 28.687 51.4279 28.687C43.8815 28.687 40.6473 31.7987 40.6473 37.483Z" fill="white"/>
<path d="M81.5061 28.932V35.6454H67.5403V28.932H63.1301V46.0829H67.5403V39.3696H81.5061V46.0829H85.9163V28.932H81.5061Z" fill="white"/>
<path d="M111.128 32.4602V28.9733H93.0837V46.0419H111.128V42.555H97.4728V39.0926H111.128V35.9227H97.4728V32.4602H111.128Z" fill="white"/>
<path d="M111.566 46.0419H117.613L124.148 40.1898L130.658 46.0419H136.73L127.123 37.5076L136.73 28.9733H130.658L124.148 34.8254L117.613 28.9733H111.566L121.173 37.5076L111.566 46.0419Z" fill="white"/>
<path d="M150.424 28.9733H137.012V46.0419H141.402V41.4822H150.424C154.301 41.4822 156.958 39.0438 156.958 35.2399C156.958 31.4361 154.301 28.9733 150.424 28.9733ZM149.204 37.8002H141.402V32.6553H149.204C150.521 32.6553 152.569 32.6553 152.569 35.2399C152.569 37.8002 150.521 37.8002 149.204 37.8002Z" fill="white"/>
<path d="M168.271 46.2857C175.757 46.2857 179 43.1403 179 37.4832C179 31.8506 175.757 28.7295 168.271 28.7295C160.761 28.7295 157.542 31.8262 157.542 37.4832C157.542 43.1646 160.761 46.2857 168.271 46.2857ZM168.271 42.6038C163.711 42.6038 161.931 40.9945 161.931 37.4832C161.931 33.9964 163.687 32.4114 168.271 32.4114C172.855 32.4114 174.611 34.0208 174.611 37.4832C174.611 40.9701 172.831 42.6038 168.271 42.6038Z" fill="white"/>
</svg>
