<svg width="90" height="67" viewBox="0 0 90 67" fill="none" xmlns="http://www.w3.org/2000/svg">
<path d="M0 2.19509C-4.85392e-07 1.05852 1.32841 0.44577 2.18748 1.18608L46.1511 39.0721C47.0839 39.876 46.5177 41.4109 45.2883 41.4109H1.32467C0.593086 41.4109 1.64935e-05 40.8156 1.61798e-05 40.0812L0 2.19509Z" fill="#198A4D"/>
<path d="M0 2.19509C-4.85392e-07 1.05852 1.32841 0.44577 2.18748 1.18608L46.1511 39.0721C47.0839 39.876 46.5177 41.4109 45.2883 41.4109H1.32467C0.593086 41.4109 1.64935e-05 40.8156 1.61798e-05 40.0812L0 2.19509Z" fill="#198A4D"/>
<path d="M46.6148 2.28679C46.6148 1.14764 45.2775 0.534213 44.4141 1.27728L0.499935 39.0701C-0.436301 39.8758 0.133519 41.4114 1.36873 41.4114H45.2829C46.0185 41.4114 46.6147 40.8151 46.6147 40.0796L46.6148 2.28679Z" fill="#26B166"/>
<path d="M46.6148 2.28679C46.6148 1.14764 45.2775 0.534213 44.4141 1.27728L0.499935 39.0701C-0.436301 39.8758 0.133519 41.4114 1.36873 41.4114H45.2829C46.0185 41.4114 46.6147 40.8151 46.6147 40.0796L46.6148 2.28679Z" fill="#26B166"/>
<path d="M88.354 41.4118C89.74 41.4118 90.2041 39.5583 88.9817 38.9052L54.6404 20.5568C53.7532 20.0827 52.6809 20.7256 52.6809 21.7315L52.6809 40.0799C52.6809 40.8155 53.2772 41.4118 54.0128 41.4118L88.354 41.4118Z" fill="#00C1FE"/>
<path d="M88.354 41.4118C89.74 41.4118 90.2041 39.5583 88.9817 38.9052L54.6404 20.5568C53.7532 20.0827 52.6809 20.7256 52.6809 21.7315L52.6809 40.0799C52.6809 40.8155 53.2772 41.4118 54.0128 41.4118L88.354 41.4118Z" fill="#00C1FE"/>
<path d="M88.3221 0.862732C89.7101 0.862732 90.1725 2.72043 88.9464 3.37108L54.6371 21.5786C53.75 22.0493 52.6809 21.4063 52.6809 20.4021L52.6809 2.19461C52.6809 1.45904 53.2772 0.862738 54.0128 0.862738L88.3221 0.862732Z" fill="#00C1FE"/>
<path d="M88.3221 0.862732C89.7101 0.862732 90.1725 2.72043 88.9464 3.37108L54.6371 21.5786C53.75 22.0493 52.6809 21.4063 52.6809 20.4021L52.6809 2.19461C52.6809 1.45904 53.2772 0.862738 54.0128 0.862738L88.3221 0.862732Z" fill="#00C1FE"/>
<path d="M24.1472 11.4612C23.7086 11.8465 23.0521 11.8465 22.6135 11.4612L11.8834 2.03471C11.0783 1.32741 11.5785 1.88271e-07 12.6502 2.8859e-07L34.1105 2.29748e-06C35.1822 2.3978e-06 35.6825 1.32741 34.8773 2.03471L24.1472 11.4612Z" fill="#FFB800"/>
<path d="M24.1472 11.4612C23.7086 11.8465 23.0521 11.8465 22.6135 11.4612L11.8834 2.03471C11.0783 1.32741 11.5785 1.88271e-07 12.6502 2.8859e-07L34.1105 2.29748e-06C35.1822 2.3978e-06 35.6825 1.32741 34.8773 2.03471L24.1472 11.4612Z" fill="#FFB800"/>
<path d="M77.6615 20.5808C78.5373 21.0957 78.5373 22.3622 77.6615 22.8771L54.6878 36.3836C53.7999 36.9056 52.6809 36.2654 52.6809 35.2355L52.6809 8.22247C52.6809 7.19252 53.7999 6.55232 54.6878 7.07432L77.6615 20.5808Z" fill="#42D2FF"/>
<path d="M77.6615 20.5808C78.5373 21.0957 78.5373 22.3622 77.6615 22.8771L54.6878 36.3836C53.7999 36.9056 52.6809 36.2654 52.6809 35.2355L52.6809 8.22247C52.6809 7.19252 53.7999 6.55232 54.6878 7.07432L77.6615 20.5808Z" fill="#42D2FF"/>
<path d="M19.5797 44.0974H15.3235L10.1915 52.75L5.05956 44.0974H0.803345V56.3581H3.9561V47.9508L9.05305 56.3581H11.33L16.427 47.9508V56.3581H19.5797V44.0974Z" fill="white"/>
<path d="M35.9626 50.2102V44.0974H32.8098V50.2102C32.8098 51.9092 32.3369 53.8884 28.2558 53.8884C24.1748 53.8884 23.7019 51.9267 23.7019 50.2102V44.0974H20.5491V50.2102C20.5491 54.484 22.8611 56.5333 28.2558 56.5333C33.633 56.5333 35.9626 54.4665 35.9626 50.2102Z" fill="white"/>
<path d="M36.6645 52.1369C36.6645 55.675 39.6597 56.5333 44.6866 56.5333C49.223 56.5333 52.3232 55.8677 52.3232 52.5923C52.3232 49.4921 49.3281 49.2294 44.4939 48.9666C40.9208 48.7565 40.1851 48.5813 40.1851 47.6355C40.1851 46.7247 40.9208 46.4269 44.021 46.4269C47.2963 46.4269 48.645 46.7597 48.645 48.1084H51.7978C51.7978 45.0783 48.9953 43.9222 44.3713 43.9222C39.7823 43.9222 37.0324 44.7805 37.0324 47.4778C37.0324 50.2277 39.1517 51.0685 44.4939 51.3137C48.4699 51.5064 49.1705 51.6815 49.1705 52.6974C49.1705 53.6607 48.1721 54.0286 44.8617 54.0286C40.8682 54.0286 39.8173 53.433 39.8173 52.1369H36.6645Z" fill="white"/>
<path d="M56.1804 53.7133V44.0974H53.0277V56.3581H65.6387V53.7133H56.1804Z" fill="white"/>
<path d="M69.5803 44.0974H66.4276V56.3581H69.5803V44.0974Z" fill="white"/>
<path d="M89.3159 44.0974H85.0597L79.9277 52.75L74.7958 44.0974H70.5395V56.3581H73.6923V47.9508L78.7892 56.3581H81.0662L86.1632 47.9508V56.3581H89.3159V44.0974Z" fill="white"/>
<path d="M11.1746 57.8112H0.740112V59.6433H4.86538V66.3044H7.04935V59.6433H11.1746V57.8112Z" fill="white"/>
<path d="M20.5679 59.5462V57.8112H11.5893V66.3044H20.5679V64.5693H13.7733V62.8464H20.5679V61.2691H13.7733V59.5462H20.5679Z" fill="white"/>
<path d="M20.8688 62.0457C20.8688 64.8727 22.4704 66.4257 26.2074 66.4257C29.5926 66.4257 31.2912 65.1275 31.5096 62.6644H29.2892C29.083 64.0476 28.0153 64.5936 26.2074 64.5936C23.9992 64.5936 23.0528 63.7928 23.0528 62.0457C23.0528 60.3106 23.987 59.522 26.2074 59.522C28.0274 59.522 29.083 60.0558 29.2892 61.4269H31.5096C31.2912 58.976 29.5926 57.6898 26.2074 57.6898C22.4704 57.6898 20.8688 59.2308 20.8688 62.0457Z" fill="white"/>
<path d="M41.1023 57.8112V61.1357H34.1864V57.8112H32.0024V66.3044H34.1864V62.9799H41.1023V66.3044H43.2862V57.8112H41.1023Z" fill="white"/>
<path d="M55.7711 59.5582V57.8315H46.8357V66.284H55.7711V64.5573H49.0092V62.8426H55.7711V61.2729H49.0092V59.5582H55.7711Z" fill="white"/>
<path d="M55.9881 66.284H58.9827L62.2188 63.386L65.4428 66.284H68.4494L63.6919 62.0578L68.4494 57.8315H65.4428L62.2188 60.7295L58.9827 57.8315H55.9881L60.7456 62.0578L55.9881 66.284Z" fill="white"/>
<path d="M75.2306 57.8315H68.5894V66.284H70.7629V64.026H75.2306C77.1505 64.026 78.4667 62.8185 78.4667 60.9348C78.4667 59.0511 77.1505 57.8315 75.2306 57.8315ZM74.6269 62.2027H70.7629V59.6548H74.6269C75.2789 59.6548 76.2932 59.6548 76.2932 60.9348C76.2932 62.2027 75.2789 62.2027 74.6269 62.2027Z" fill="white"/>
<path d="M84.0689 66.4047C87.7759 66.4047 89.3818 64.8471 89.3818 62.0457C89.3818 59.2564 87.7759 57.7108 84.0689 57.7108C80.3498 57.7108 78.7559 59.2443 78.7559 62.0457C78.7559 64.8591 80.3498 66.4047 84.0689 66.4047ZM84.0689 64.5814C81.8109 64.5814 80.9294 63.7845 80.9294 62.0457C80.9294 60.319 81.7988 59.5341 84.0689 59.5341C86.3389 59.5341 87.2083 60.331 87.2083 62.0457C87.2083 63.7724 86.3269 64.5814 84.0689 64.5814Z" fill="white"/>
</svg>
