<svg width="179" height="27" viewBox="0 0 179 27" fill="none" xmlns="http://www.w3.org/2000/svg">
<path d="M38.0441 1.23944H29.4493L19.0859 18.7121L8.72256 1.23944H0.127686V25.9983H6.49426V9.02081L16.7869 25.9983H21.385L31.6776 9.02081V25.9983H38.0441V1.23944Z" fill="white"/>
<path d="M71.1271 13.5835V1.23944H64.7605V13.5835C64.7605 17.0144 63.8055 21.0112 55.5644 21.0112C47.3232 21.0112 46.3682 17.0498 46.3682 13.5835V1.23944H40.0016V13.5835C40.0016 22.2138 44.6705 26.352 55.5644 26.352C66.4229 26.352 71.1271 22.1784 71.1271 13.5835Z" fill="white"/>
<path d="M72.5447 17.4742C72.5447 24.6189 78.5929 26.352 88.744 26.352C97.9048 26.352 104.165 25.008 104.165 18.3938C104.165 12.1334 98.1171 11.6028 88.355 11.0723C81.1395 10.6478 79.654 10.2941 79.654 8.38415C79.654 6.54492 81.1395 5.94363 87.4 5.94363C94.0142 5.94363 96.7376 6.61566 96.7376 9.33913H103.104C103.104 3.22015 97.445 0.885742 88.1074 0.885742C78.8405 0.885742 73.2874 2.61887 73.2874 8.06582C73.2874 13.6189 77.5672 15.3166 88.355 15.8118C96.3839 16.2009 97.7987 16.5546 97.7987 18.606C97.7987 20.5514 95.7826 21.2941 89.0977 21.2941C81.0334 21.2941 78.9112 20.0916 78.9112 17.4742H72.5447Z" fill="white"/>
<path d="M111.954 20.6575V1.23944H105.588V25.9983H131.054V20.6575H111.954Z" fill="white"/>
<path d="M139.014 1.23944H132.647V25.9983H139.014V1.23944Z" fill="white"/>
<path d="M178.867 1.23944H170.272L159.909 18.7121L149.546 1.23944H140.951V25.9983H147.317V9.02081L157.61 25.9983H162.208L172.501 9.02081V25.9983H178.867V1.23944Z" fill="white"/>
</svg>
