<svg width="681" height="98" viewBox="0 0 681 98" fill="none" xmlns="http://www.w3.org/2000/svg">
<path d="M145.13 1.93214H112.447L73.039 68.3741L33.6311 1.93214H0.94812V96.0807H25.1577V31.5217L64.2966 96.0807H81.7814L120.92 31.5217V96.0807H145.13V1.93214Z" fill="white"/>
<path d="M270.932 48.8719V1.93214H246.722V48.8719C246.722 61.9182 243.091 77.1165 211.753 77.1165C180.415 77.1165 176.783 62.0527 176.783 48.8719V1.93214H152.574V48.8719C152.574 81.6894 170.327 97.4257 211.753 97.4257C253.043 97.4257 270.932 81.5549 270.932 48.8719Z" fill="white"/>
<path d="M276.322 63.6667C276.322 90.8353 299.321 97.4257 337.922 97.4257C372.757 97.4257 396.563 92.3148 396.563 67.1636C396.563 43.3575 373.564 41.34 336.443 39.3226C309.005 37.7086 303.356 36.3636 303.356 29.1007C303.356 22.1068 309.005 19.8204 332.811 19.8204C357.962 19.8204 368.319 22.3758 368.319 32.7322H392.528C392.528 9.46402 371.009 0.587158 335.501 0.587158C300.263 0.587158 279.147 7.17756 279.147 27.8902C279.147 49.0064 295.421 55.4623 336.443 57.3453C366.974 58.8248 372.354 60.1697 372.354 67.9706C372.354 75.368 364.687 78.1925 339.267 78.1925C308.602 78.1925 300.532 73.6195 300.532 63.6667H276.322Z" fill="white"/>
<path d="M426.182 75.7715V1.93214H401.973V96.0807H498.811V75.7715H426.182Z" fill="white"/>
<path d="M529.078 1.93214H504.869V96.0807H529.078V1.93214Z" fill="white"/>
<path d="M680.626 1.93214H647.943L608.535 68.3741L569.127 1.93214H536.444V96.0807H560.654V31.5217L599.793 96.0807H617.278L656.416 31.5217V96.0807H680.626V1.93214Z" fill="white"/>
</svg>
