<svg width="328" height="68" viewBox="0 0 328 68" fill="none" xmlns="http://www.w3.org/2000/svg">
<path d="M80.5881 1.23809H0.462646V15.3066H32.1401V66.4564H48.9106V15.3066H80.5881V1.23809Z" fill="white"/>
<path d="M152.718 14.5613V1.23809H83.7725V66.4564H152.718V53.1333H100.543V39.9033H152.718V27.7913H100.543V14.5613H152.718Z" fill="white"/>
<path d="M155.029 33.7541C155.029 55.4625 167.327 67.3881 196.023 67.3881C222.017 67.3881 235.061 57.419 236.738 38.5057H219.688C218.104 49.127 209.905 53.3196 196.023 53.3196C179.066 53.3196 171.799 47.1704 171.799 33.7541C171.799 20.4309 178.973 14.3749 196.023 14.3749C209.998 14.3749 218.104 18.4744 219.688 29.0025H236.738C235.061 10.1823 222.017 0.306396 196.023 0.306396C167.327 0.306396 155.029 12.1389 155.029 33.7541Z" fill="white"/>
<path d="M310.399 1.23809V26.7664H257.293V1.23809H240.522V66.4564H257.293V40.9281H310.399V66.4564H327.169V1.23809H310.399Z" fill="white"/>
</svg>
