<svg width="86" height="19" viewBox="0 0 86 19" fill="none" xmlns="http://www.w3.org/2000/svg">
<path d="M21.0711 0.932025H0V4.63172H8.33044V18.0829H12.7407V4.63172H21.0711V0.932025Z" fill="white"/>
<path d="M40.0395 4.43571V0.932025H21.9086V18.0829H40.0395V14.5793H26.3188V11.1001H40.0395V7.9149H26.3188V4.43571H40.0395Z" fill="white"/>
<path d="M40.6473 9.48298C40.6473 15.1918 43.8815 18.328 51.4279 18.328C58.2637 18.328 61.6939 15.7063 62.1349 10.7325H57.6512C57.2347 13.5257 55.0785 14.6283 51.4279 14.6283C46.9686 14.6283 45.0575 13.0112 45.0575 9.48298C45.0575 5.97929 46.9441 4.38671 51.4279 4.38671C55.1031 4.38671 57.2347 5.46477 57.6512 8.23341H62.1349C61.6939 3.28415 58.2637 0.687012 51.4279 0.687012C43.8815 0.687012 40.6473 3.79868 40.6473 9.48298Z" fill="white"/>
<path d="M81.5061 0.932025V7.64538H67.5403V0.932025H63.1301V18.0829H67.5403V11.3696H81.5061V18.0829H85.9163V0.932025H81.5061Z" fill="white"/>
</svg>
